<svg xmlns="http://www.w3.org/2000/svg" xmlns:xlink="http://www.w3.org/1999/xlink" width="278.141" height="187.432" viewBox="0 0 278.141 187.432">
<defs>
<clipPath id="clip-0">
<path clip-rule="nonzero" d="M 54 0.00390625 L 99 0.00390625 L 99 37 L 54 37 Z M 54 0.00390625 "/>
</clipPath>
<clipPath id="clip-1">
<path clip-rule="nonzero" d="M 54 150 L 99 150 L 99 186.859375 L 54 186.859375 Z M 54 150 "/>
</clipPath>
<clipPath id="clip-2">
<path clip-rule="nonzero" d="M 116 0.00390625 L 161 0.00390625 L 161 37 L 116 37 Z M 116 0.00390625 "/>
</clipPath>
<clipPath id="clip-3">
<path clip-rule="nonzero" d="M 116 150 L 161 150 L 161 186.859375 L 116 186.859375 Z M 116 150 "/>
</clipPath>
<clipPath id="clip-4">
<path clip-rule="nonzero" d="M 178 0.00390625 L 223 0.00390625 L 223 37 L 178 37 Z M 178 0.00390625 "/>
</clipPath>
<clipPath id="clip-5">
<path clip-rule="nonzero" d="M 178 150 L 223 150 L 223 186.859375 L 178 186.859375 Z M 178 150 "/>
</clipPath>
<clipPath id="clip-6">
<path clip-rule="nonzero" d="M 240 31 L 277.285156 31 L 277.285156 77 L 240 77 Z M 240 31 "/>
</clipPath>
<clipPath id="clip-7">
<path clip-rule="nonzero" d="M 240 71 L 277.285156 71 L 277.285156 116 L 240 116 Z M 240 71 "/>
</clipPath>
<clipPath id="clip-8">
<path clip-rule="nonzero" d="M 240 110 L 277.285156 110 L 277.285156 156 L 240 156 Z M 240 110 "/>
</clipPath>
</defs>
<path fill-rule="nonzero" fill="rgb(79.998779%, 79.998779%, 100%)" fill-opacity="1" stroke-width="0.79701" stroke-linecap="butt" stroke-linejoin="miter" stroke="rgb(0%, 0%, 100%)" stroke-opacity="1" stroke-miterlimit="10" d="M 73.320471 59.526303 C 73.320471 65.580098 68.414742 70.485827 62.360947 70.485827 C 56.311071 70.485827 51.405342 65.580098 51.405342 59.526303 C 51.405342 53.476427 56.311071 48.570698 62.360947 48.570698 C 68.414742 48.570698 73.320471 53.476427 73.320471 59.526303 Z M 73.320471 59.526303 " transform="matrix(0.996921, 0, 0, -0.996921, -47.868166, 93.432874)"/>
<path fill-rule="nonzero" fill="rgb(79.998779%, 79.998779%, 100%)" fill-opacity="1" stroke-width="0.79701" stroke-linecap="butt" stroke-linejoin="miter" stroke="rgb(0%, 0%, 100%)" stroke-opacity="1" stroke-miterlimit="10" d="M 73.320471 19.84162 C 73.320471 25.895415 68.414742 30.801144 62.360947 30.801144 C 56.311071 30.801144 51.405342 25.895415 51.405342 19.84162 C 51.405342 13.791743 56.311071 8.882096 62.360947 8.882096 C 68.414742 8.882096 73.320471 13.791743 73.320471 19.84162 Z M 73.320471 19.84162 " transform="matrix(0.996921, 0, 0, -0.996921, -47.868166, 93.432874)"/>
<path fill-rule="nonzero" fill="rgb(79.998779%, 79.998779%, 100%)" fill-opacity="1" stroke-width="0.79701" stroke-linecap="butt" stroke-linejoin="miter" stroke="rgb(0%, 0%, 100%)" stroke-opacity="1" stroke-miterlimit="10" d="M 73.320471 -19.843063 C 73.320471 -13.789268 68.414742 -8.883539 62.360947 -8.883539 C 56.311071 -8.883539 51.405342 -13.789268 51.405342 -19.843063 C 51.405342 -25.896858 56.311071 -30.802587 62.360947 -30.802587 C 68.414742 -30.802587 73.320471 -25.896858 73.320471 -19.843063 Z M 73.320471 -19.843063 " transform="matrix(0.996921, 0, 0, -0.996921, -47.868166, 93.432874)"/>
<path fill-rule="nonzero" fill="rgb(79.998779%, 79.998779%, 100%)" fill-opacity="1" stroke-width="0.79701" stroke-linecap="butt" stroke-linejoin="miter" stroke="rgb(0%, 0%, 100%)" stroke-opacity="1" stroke-miterlimit="10" d="M 73.320471 -59.527747 C 73.320471 -53.473952 68.414742 -48.568223 62.360947 -48.568223 C 56.311071 -48.568223 51.405342 -53.473952 51.405342 -59.527747 C 51.405342 -65.581542 56.311071 -70.487271 62.360947 -70.487271 C 68.414742 -70.487271 73.320471 -65.581542 73.320471 -59.527747 Z M 73.320471 -59.527747 " transform="matrix(0.996921, 0, 0, -0.996921, -47.868166, 93.432874)"/>
<path fill-rule="nonzero" fill="rgb(79.998779%, 79.998779%, 100%)" fill-opacity="1" d="M 87.398438 14.304688 C 87.398438 8.273438 82.507812 3.382812 76.472656 3.382812 C 70.441406 3.382812 65.546875 8.273438 65.546875 14.304688 C 65.546875 20.339844 70.441406 25.230469 76.472656 25.230469 C 82.507812 25.230469 87.398438 20.339844 87.398438 14.304688 Z M 87.398438 14.304688 "/>
<g clip-path="url(#clip-0)">
<path fill="none" stroke-width="0.79701" stroke-linecap="butt" stroke-linejoin="miter" stroke="rgb(0%, 0%, 100%)" stroke-opacity="1" stroke-miterlimit="10" d="M 135.684355 79.372563 C 135.684355 85.42244 130.778626 90.328169 124.724831 90.328169 C 118.674955 90.328169 113.765307 85.42244 113.765307 79.372563 C 113.765307 73.318768 118.674955 68.413039 124.724831 68.413039 C 130.778626 68.413039 135.684355 73.318768 135.684355 79.372563 Z M 135.684355 79.372563 " transform="matrix(0.996921, 0, 0, -0.996921, -47.868166, 93.432874)"/>
</g>
<path fill="none" stroke-width="0.79701" stroke-linecap="butt" stroke-linejoin="miter" stroke="rgb(0%, 0%, 0%)" stroke-opacity="1" stroke-miterlimit="10" d="M 73.187249 62.970501 L 113.902448 75.928365 " transform="matrix(0.996921, 0, 0, -0.996921, -47.868166, 93.432874)"/>
<path fill="none" stroke-width="0.79701" stroke-linecap="butt" stroke-linejoin="miter" stroke="rgb(0%, 0%, 0%)" stroke-opacity="1" stroke-miterlimit="10" d="M 70.577652 27.686085 L 116.512046 71.528099 " transform="matrix(0.996921, 0, 0, -0.996921, -47.868166, 93.432874)"/>
<path fill="none" stroke-width="0.79701" stroke-linecap="butt" stroke-linejoin="miter" stroke="rgb(0%, 0%, 0%)" stroke-opacity="1" stroke-miterlimit="10" d="M 68.406906 -10.227521 L 118.682791 69.757021 " transform="matrix(0.996921, 0, 0, -0.996921, -47.868166, 93.432874)"/>
<path fill="none" stroke-width="0.79701" stroke-linecap="butt" stroke-linejoin="miter" stroke="rgb(0%, 0%, 0%)" stroke-opacity="1" stroke-miterlimit="10" d="M 67.015904 -49.167725 L 120.073793 69.008623 " transform="matrix(0.996921, 0, 0, -0.996921, -47.868166, 93.432874)"/>
<path fill-rule="nonzero" fill="rgb(79.998779%, 79.998779%, 100%)" fill-opacity="1" stroke-width="0.79701" stroke-linecap="butt" stroke-linejoin="miter" stroke="rgb(0%, 0%, 100%)" stroke-opacity="1" stroke-miterlimit="10" d="M 135.684355 39.683962 C 135.684355 45.737757 130.778626 50.643486 124.724831 50.643486 C 118.674955 50.643486 113.765307 45.737757 113.765307 39.683962 C 113.765307 33.634085 118.674955 28.724438 124.724831 28.724438 C 130.778626 28.724438 135.684355 33.634085 135.684355 39.683962 Z M 135.684355 39.683962 " transform="matrix(0.996921, 0, 0, -0.996921, -47.868166, 93.432874)"/>
<path fill="none" stroke-width="0.79701" stroke-linecap="butt" stroke-linejoin="miter" stroke="rgb(0%, 0%, 0%)" stroke-opacity="1" stroke-miterlimit="10" d="M 73.187249 56.086024 L 113.902448 43.12816 " transform="matrix(0.996921, 0, 0, -0.996921, -47.868166, 93.432874)"/>
<path fill="none" stroke-width="0.79701" stroke-linecap="butt" stroke-linejoin="miter" stroke="rgb(0%, 0%, 0%)" stroke-opacity="1" stroke-miterlimit="10" d="M 73.187249 23.285818 L 113.902448 36.243682 " transform="matrix(0.996921, 0, 0, -0.996921, -47.868166, 93.432874)"/>
<path fill="none" stroke-width="0.79701" stroke-linecap="butt" stroke-linejoin="miter" stroke="rgb(0%, 0%, 0%)" stroke-opacity="1" stroke-miterlimit="10" d="M 70.577652 -12.002517 L 116.512046 31.843416 " transform="matrix(0.996921, 0, 0, -0.996921, -47.868166, 93.432874)"/>
<path fill="none" stroke-width="0.79701" stroke-linecap="butt" stroke-linejoin="miter" stroke="rgb(0%, 0%, 0%)" stroke-opacity="1" stroke-miterlimit="10" d="M 68.406906 -49.912204 L 118.682791 30.068419 " transform="matrix(0.996921, 0, 0, -0.996921, -47.868166, 93.432874)"/>
<path fill-rule="nonzero" fill="rgb(79.998779%, 79.998779%, 100%)" fill-opacity="1" stroke-width="0.79701" stroke-linecap="butt" stroke-linejoin="miter" stroke="rgb(0%, 0%, 100%)" stroke-opacity="1" stroke-miterlimit="10" d="M 135.684355 -0.000721577 C 135.684355 6.053073 130.778626 10.958802 124.724831 10.958802 C 118.674955 10.958802 113.765307 6.053073 113.765307 -0.000721577 C 113.765307 -6.054517 118.674955 -10.960246 124.724831 -10.960246 C 130.778626 -10.960246 135.684355 -6.054517 135.684355 -0.000721577 Z M 135.684355 -0.000721577 " transform="matrix(0.996921, 0, 0, -0.996921, -47.868166, 93.432874)"/>
<path fill="none" stroke-width="0.79701" stroke-linecap="butt" stroke-linejoin="miter" stroke="rgb(0%, 0%, 0%)" stroke-opacity="1" stroke-miterlimit="10" d="M 70.577652 51.685757 L 116.512046 7.839825 " transform="matrix(0.996921, 0, 0, -0.996921, -47.868166, 93.432874)"/>
<path fill="none" stroke-width="0.79701" stroke-linecap="butt" stroke-linejoin="miter" stroke="rgb(0%, 0%, 0%)" stroke-opacity="1" stroke-miterlimit="10" d="M 73.187249 16.397422 L 113.902448 3.443476 " transform="matrix(0.996921, 0, 0, -0.996921, -47.868166, 93.432874)"/>
<path fill="none" stroke-width="0.79701" stroke-linecap="butt" stroke-linejoin="miter" stroke="rgb(0%, 0%, 0%)" stroke-opacity="1" stroke-miterlimit="10" d="M 73.187249 -16.398865 L 113.902448 -3.44492 " transform="matrix(0.996921, 0, 0, -0.996921, -47.868166, 93.432874)"/>
<path fill="none" stroke-width="0.79701" stroke-linecap="butt" stroke-linejoin="miter" stroke="rgb(0%, 0%, 0%)" stroke-opacity="1" stroke-miterlimit="10" d="M 70.577652 -51.6872 L 116.512046 -7.841268 " transform="matrix(0.996921, 0, 0, -0.996921, -47.868166, 93.432874)"/>
<path fill-rule="nonzero" fill="rgb(79.998779%, 79.998779%, 100%)" fill-opacity="1" stroke-width="0.79701" stroke-linecap="butt" stroke-linejoin="miter" stroke="rgb(0%, 0%, 100%)" stroke-opacity="1" stroke-miterlimit="10" d="M 135.684355 -39.685405 C 135.684355 -33.63161 130.778626 -28.725881 124.724831 -28.725881 C 118.674955 -28.725881 113.765307 -33.63161 113.765307 -39.685405 C 113.765307 -45.7392 118.674955 -50.644929 124.724831 -50.644929 C 130.778626 -50.644929 135.684355 -45.7392 135.684355 -39.685405 Z M 135.684355 -39.685405 " transform="matrix(0.996921, 0, 0, -0.996921, -47.868166, 93.432874)"/>
<path fill="none" stroke-width="0.79701" stroke-linecap="butt" stroke-linejoin="miter" stroke="rgb(0%, 0%, 0%)" stroke-opacity="1" stroke-miterlimit="10" d="M 68.406906 49.910761 L 118.682791 -30.069863 " transform="matrix(0.996921, 0, 0, -0.996921, -47.868166, 93.432874)"/>
<path fill="none" stroke-width="0.79701" stroke-linecap="butt" stroke-linejoin="miter" stroke="rgb(0%, 0%, 0%)" stroke-opacity="1" stroke-miterlimit="10" d="M 70.577652 12.001074 L 116.512046 -31.844859 " transform="matrix(0.996921, 0, 0, -0.996921, -47.868166, 93.432874)"/>
<path fill="none" stroke-width="0.79701" stroke-linecap="butt" stroke-linejoin="miter" stroke="rgb(0%, 0%, 0%)" stroke-opacity="1" stroke-miterlimit="10" d="M 73.187249 -23.287261 L 113.902448 -36.241207 " transform="matrix(0.996921, 0, 0, -0.996921, -47.868166, 93.432874)"/>
<path fill="none" stroke-width="0.79701" stroke-linecap="butt" stroke-linejoin="miter" stroke="rgb(0%, 0%, 0%)" stroke-opacity="1" stroke-miterlimit="10" d="M 73.187249 -56.083549 L 113.902448 -43.129603 " transform="matrix(0.996921, 0, 0, -0.996921, -47.868166, 93.432874)"/>
<path fill-rule="nonzero" fill="rgb(79.998779%, 79.998779%, 100%)" fill-opacity="1" d="M 87.398438 172.558594 C 87.398438 166.523438 82.507812 161.632812 76.472656 161.632812 C 70.441406 161.632812 65.546875 166.523438 65.546875 172.558594 C 65.546875 178.59375 70.441406 183.484375 76.472656 183.484375 C 82.507812 183.484375 87.398438 178.59375 87.398438 172.558594 Z M 87.398438 172.558594 "/>
<g clip-path="url(#clip-1)">
<path fill="none" stroke-width="0.79701" stroke-linecap="butt" stroke-linejoin="miter" stroke="rgb(0%, 0%, 100%)" stroke-opacity="1" stroke-miterlimit="10" d="M 135.684355 -79.370088 C 135.684355 -73.316293 130.778626 -68.410564 124.724831 -68.410564 C 118.674955 -68.410564 113.765307 -73.316293 113.765307 -79.370088 C 113.765307 -85.423883 118.674955 -90.329612 124.724831 -90.329612 C 130.778626 -90.329612 135.684355 -85.423883 135.684355 -79.370088 Z M 135.684355 -79.370088 " transform="matrix(0.996921, 0, 0, -0.996921, -47.868166, 93.432874)"/>
</g>
<path fill="none" stroke-width="0.79701" stroke-linecap="butt" stroke-linejoin="miter" stroke="rgb(0%, 0%, 0%)" stroke-opacity="1" stroke-miterlimit="10" d="M 67.015904 49.166281 L 120.073793 -69.010066 " transform="matrix(0.996921, 0, 0, -0.996921, -47.868166, 93.432874)"/>
<path fill="none" stroke-width="0.79701" stroke-linecap="butt" stroke-linejoin="miter" stroke="rgb(0%, 0%, 0%)" stroke-opacity="1" stroke-miterlimit="10" d="M 68.406906 10.226078 L 118.682791 -69.754546 " transform="matrix(0.996921, 0, 0, -0.996921, -47.868166, 93.432874)"/>
<path fill="none" stroke-width="0.79701" stroke-linecap="butt" stroke-linejoin="miter" stroke="rgb(0%, 0%, 0%)" stroke-opacity="1" stroke-miterlimit="10" d="M 70.577652 -27.683609 L 116.512046 -71.529542 " transform="matrix(0.996921, 0, 0, -0.996921, -47.868166, 93.432874)"/>
<path fill="none" stroke-width="0.79701" stroke-linecap="butt" stroke-linejoin="miter" stroke="rgb(0%, 0%, 0%)" stroke-opacity="1" stroke-miterlimit="10" d="M 73.187249 -62.971944 L 113.902448 -75.92589 " transform="matrix(0.996921, 0, 0, -0.996921, -47.868166, 93.432874)"/>
<path fill-rule="nonzero" fill="rgb(79.998779%, 79.998779%, 100%)" fill-opacity="1" d="M 149.570312 14.304688 C 149.570312 8.273438 144.679688 3.382812 138.644531 3.382812 C 132.609375 3.382812 127.71875 8.273438 127.71875 14.304688 C 127.71875 20.339844 132.609375 25.230469 138.644531 25.230469 C 144.679688 25.230469 149.570312 20.339844 149.570312 14.304688 Z M 149.570312 14.304688 "/>
<g clip-path="url(#clip-2)">
<path fill="none" stroke-width="0.79701" stroke-linecap="butt" stroke-linejoin="miter" stroke="rgb(0%, 0%, 100%)" stroke-opacity="1" stroke-miterlimit="10" d="M 198.04824 79.372563 C 198.04824 85.42244 193.142511 90.328169 187.088716 90.328169 C 181.034921 90.328169 176.129192 85.42244 176.129192 79.372563 C 176.129192 73.318768 181.034921 68.413039 187.088716 68.413039 C 193.142511 68.413039 198.04824 73.318768 198.04824 79.372563 Z M 198.04824 79.372563 " transform="matrix(0.996921, 0, 0, -0.996921, -47.868166, 93.432874)"/>
</g>
<path fill="none" stroke-width="0.79701" stroke-linecap="butt" stroke-linejoin="miter" stroke="rgb(0%, 0%, 0%)" stroke-opacity="1" stroke-miterlimit="10" d="M 136.084024 79.372563 L 175.729524 79.372563 " transform="matrix(0.996921, 0, 0, -0.996921, -47.868166, 93.432874)"/>
<path fill="none" stroke-width="0.79701" stroke-linecap="butt" stroke-linejoin="miter" stroke="rgb(0%, 0%, 0%)" stroke-opacity="1" stroke-miterlimit="10" d="M 134.309027 45.780858 L 177.508438 73.271749 " transform="matrix(0.996921, 0, 0, -0.996921, -47.868166, 93.432874)"/>
<path fill="none" stroke-width="0.79701" stroke-linecap="butt" stroke-linejoin="miter" stroke="rgb(0%, 0%, 0%)" stroke-opacity="1" stroke-miterlimit="10" d="M 131.742532 8.929116 L 180.071015 70.438808 " transform="matrix(0.996921, 0, 0, -0.996921, -47.868166, 93.432874)"/>
<path fill="none" stroke-width="0.79701" stroke-linecap="butt" stroke-linejoin="miter" stroke="rgb(0%, 0%, 0%)" stroke-opacity="1" stroke-miterlimit="10" d="M 129.994964 -29.623175 L 181.818583 69.310333 " transform="matrix(0.996921, 0, 0, -0.996921, -47.868166, 93.432874)"/>
<path fill="none" stroke-width="0.79701" stroke-linecap="butt" stroke-linejoin="miter" stroke="rgb(0%, 0%, 0%)" stroke-opacity="1" stroke-miterlimit="10" d="M 128.878244 -68.798477 L 182.935303 68.800952 " transform="matrix(0.996921, 0, 0, -0.996921, -47.868166, 93.432874)"/>
<path fill-rule="nonzero" fill="rgb(79.998779%, 79.998779%, 100%)" fill-opacity="1" stroke-width="0.79701" stroke-linecap="butt" stroke-linejoin="miter" stroke="rgb(0%, 0%, 100%)" stroke-opacity="1" stroke-miterlimit="10" d="M 198.04824 39.683962 C 198.04824 45.737757 193.142511 50.643486 187.088716 50.643486 C 181.034921 50.643486 176.129192 45.737757 176.129192 39.683962 C 176.129192 33.634085 181.034921 28.724438 187.088716 28.724438 C 193.142511 28.724438 198.04824 33.634085 198.04824 39.683962 Z M 198.04824 39.683962 " transform="matrix(0.996921, 0, 0, -0.996921, -47.868166, 93.432874)"/>
<path fill="none" stroke-width="0.79701" stroke-linecap="butt" stroke-linejoin="miter" stroke="rgb(0%, 0%, 0%)" stroke-opacity="1" stroke-miterlimit="10" d="M 134.309027 73.271749 L 177.508438 45.780858 " transform="matrix(0.996921, 0, 0, -0.996921, -47.868166, 93.432874)"/>
<path fill="none" stroke-width="0.79701" stroke-linecap="butt" stroke-linejoin="miter" stroke="rgb(0%, 0%, 0%)" stroke-opacity="1" stroke-miterlimit="10" d="M 136.084024 39.683962 L 175.729524 39.683962 " transform="matrix(0.996921, 0, 0, -0.996921, -47.868166, 93.432874)"/>
<path fill="none" stroke-width="0.79701" stroke-linecap="butt" stroke-linejoin="miter" stroke="rgb(0%, 0%, 0%)" stroke-opacity="1" stroke-miterlimit="10" d="M 134.309027 6.096175 L 177.508438 33.587065 " transform="matrix(0.996921, 0, 0, -0.996921, -47.868166, 93.432874)"/>
<path fill="none" stroke-width="0.79701" stroke-linecap="butt" stroke-linejoin="miter" stroke="rgb(0%, 0%, 0%)" stroke-opacity="1" stroke-miterlimit="10" d="M 131.742532 -30.755567 L 180.071015 30.754124 " transform="matrix(0.996921, 0, 0, -0.996921, -47.868166, 93.432874)"/>
<path fill="none" stroke-width="0.79701" stroke-linecap="butt" stroke-linejoin="miter" stroke="rgb(0%, 0%, 0%)" stroke-opacity="1" stroke-miterlimit="10" d="M 129.994964 -69.311776 L 181.818583 29.62565 " transform="matrix(0.996921, 0, 0, -0.996921, -47.868166, 93.432874)"/>
<path fill-rule="nonzero" fill="rgb(79.998779%, 79.998779%, 100%)" fill-opacity="1" stroke-width="0.79701" stroke-linecap="butt" stroke-linejoin="miter" stroke="rgb(0%, 0%, 100%)" stroke-opacity="1" stroke-miterlimit="10" d="M 198.04824 -0.000721577 C 198.04824 6.053073 193.142511 10.958802 187.088716 10.958802 C 181.034921 10.958802 176.129192 6.053073 176.129192 -0.000721577 C 176.129192 -6.054517 181.034921 -10.960246 187.088716 -10.960246 C 193.142511 -10.960246 198.04824 -6.054517 198.04824 -0.000721577 Z M 198.04824 -0.000721577 " transform="matrix(0.996921, 0, 0, -0.996921, -47.868166, 93.432874)"/>
<path fill="none" stroke-width="0.79701" stroke-linecap="butt" stroke-linejoin="miter" stroke="rgb(0%, 0%, 0%)" stroke-opacity="1" stroke-miterlimit="10" d="M 131.742532 70.438808 L 180.071015 8.929116 " transform="matrix(0.996921, 0, 0, -0.996921, -47.868166, 93.432874)"/>
<path fill="none" stroke-width="0.79701" stroke-linecap="butt" stroke-linejoin="miter" stroke="rgb(0%, 0%, 0%)" stroke-opacity="1" stroke-miterlimit="10" d="M 134.309027 33.587065 L 177.508438 6.096175 " transform="matrix(0.996921, 0, 0, -0.996921, -47.868166, 93.432874)"/>
<path fill="none" stroke-width="0.79701" stroke-linecap="butt" stroke-linejoin="miter" stroke="rgb(0%, 0%, 0%)" stroke-opacity="1" stroke-miterlimit="10" d="M 136.084024 -0.000721577 L 175.729524 -0.000721577 " transform="matrix(0.996921, 0, 0, -0.996921, -47.868166, 93.432874)"/>
<path fill="none" stroke-width="0.79701" stroke-linecap="butt" stroke-linejoin="miter" stroke="rgb(0%, 0%, 0%)" stroke-opacity="1" stroke-miterlimit="10" d="M 134.309027 -33.588508 L 177.508438 -6.097618 " transform="matrix(0.996921, 0, 0, -0.996921, -47.868166, 93.432874)"/>
<path fill="none" stroke-width="0.79701" stroke-linecap="butt" stroke-linejoin="miter" stroke="rgb(0%, 0%, 0%)" stroke-opacity="1" stroke-miterlimit="10" d="M 131.742532 -70.440251 L 180.071015 -8.930559 " transform="matrix(0.996921, 0, 0, -0.996921, -47.868166, 93.432874)"/>
<path fill-rule="nonzero" fill="rgb(79.998779%, 79.998779%, 100%)" fill-opacity="1" stroke-width="0.79701" stroke-linecap="butt" stroke-linejoin="miter" stroke="rgb(0%, 0%, 100%)" stroke-opacity="1" stroke-miterlimit="10" d="M 198.04824 -39.685405 C 198.04824 -33.63161 193.142511 -28.725881 187.088716 -28.725881 C 181.034921 -28.725881 176.129192 -33.63161 176.129192 -39.685405 C 176.129192 -45.7392 181.034921 -50.644929 187.088716 -50.644929 C 193.142511 -50.644929 198.04824 -45.7392 198.04824 -39.685405 Z M 198.04824 -39.685405 " transform="matrix(0.996921, 0, 0, -0.996921, -47.868166, 93.432874)"/>
<path fill="none" stroke-width="0.79701" stroke-linecap="butt" stroke-linejoin="miter" stroke="rgb(0%, 0%, 0%)" stroke-opacity="1" stroke-miterlimit="10" d="M 129.994964 69.310333 L 181.818583 -29.623175 " transform="matrix(0.996921, 0, 0, -0.996921, -47.868166, 93.432874)"/>
<path fill="none" stroke-width="0.79701" stroke-linecap="butt" stroke-linejoin="miter" stroke="rgb(0%, 0%, 0%)" stroke-opacity="1" stroke-miterlimit="10" d="M 131.742532 30.754124 L 180.071015 -30.755567 " transform="matrix(0.996921, 0, 0, -0.996921, -47.868166, 93.432874)"/>
<path fill="none" stroke-width="0.79701" stroke-linecap="butt" stroke-linejoin="miter" stroke="rgb(0%, 0%, 0%)" stroke-opacity="1" stroke-miterlimit="10" d="M 134.309027 -6.097618 L 177.508438 -33.588508 " transform="matrix(0.996921, 0, 0, -0.996921, -47.868166, 93.432874)"/>
<path fill="none" stroke-width="0.79701" stroke-linecap="butt" stroke-linejoin="miter" stroke="rgb(0%, 0%, 0%)" stroke-opacity="1" stroke-miterlimit="10" d="M 136.084024 -39.685405 L 175.729524 -39.685405 " transform="matrix(0.996921, 0, 0, -0.996921, -47.868166, 93.432874)"/>
<path fill="none" stroke-width="0.79701" stroke-linecap="butt" stroke-linejoin="miter" stroke="rgb(0%, 0%, 0%)" stroke-opacity="1" stroke-miterlimit="10" d="M 134.309027 -73.273192 L 177.508438 -45.782301 " transform="matrix(0.996921, 0, 0, -0.996921, -47.868166, 93.432874)"/>
<path fill-rule="nonzero" fill="rgb(79.998779%, 79.998779%, 100%)" fill-opacity="1" d="M 149.570312 172.558594 C 149.570312 166.523438 144.679688 161.632812 138.644531 161.632812 C 132.609375 161.632812 127.71875 166.523438 127.71875 172.558594 C 127.71875 178.59375 132.609375 183.484375 138.644531 183.484375 C 144.679688 183.484375 149.570312 178.59375 149.570312 172.558594 Z M 149.570312 172.558594 "/>
<g clip-path="url(#clip-3)">
<path fill="none" stroke-width="0.79701" stroke-linecap="butt" stroke-linejoin="miter" stroke="rgb(0%, 0%, 100%)" stroke-opacity="1" stroke-miterlimit="10" d="M 198.04824 -79.370088 C 198.04824 -73.316293 193.142511 -68.410564 187.088716 -68.410564 C 181.034921 -68.410564 176.129192 -73.316293 176.129192 -79.370088 C 176.129192 -85.423883 181.034921 -90.329612 187.088716 -90.329612 C 193.142511 -90.329612 198.04824 -85.423883 198.04824 -79.370088 Z M 198.04824 -79.370088 " transform="matrix(0.996921, 0, 0, -0.996921, -47.868166, 93.432874)"/>
</g>
<path fill="none" stroke-width="0.79701" stroke-linecap="butt" stroke-linejoin="miter" stroke="rgb(0%, 0%, 0%)" stroke-opacity="1" stroke-miterlimit="10" d="M 128.878244 68.800952 L 182.935303 -68.798477 " transform="matrix(0.996921, 0, 0, -0.996921, -47.868166, 93.432874)"/>
<path fill="none" stroke-width="0.79701" stroke-linecap="butt" stroke-linejoin="miter" stroke="rgb(0%, 0%, 0%)" stroke-opacity="1" stroke-miterlimit="10" d="M 129.994964 29.62565 L 181.818583 -69.311776 " transform="matrix(0.996921, 0, 0, -0.996921, -47.868166, 93.432874)"/>
<path fill="none" stroke-width="0.79701" stroke-linecap="butt" stroke-linejoin="miter" stroke="rgb(0%, 0%, 0%)" stroke-opacity="1" stroke-miterlimit="10" d="M 131.742532 -8.930559 L 180.071015 -70.440251 " transform="matrix(0.996921, 0, 0, -0.996921, -47.868166, 93.432874)"/>
<path fill="none" stroke-width="0.79701" stroke-linecap="butt" stroke-linejoin="miter" stroke="rgb(0%, 0%, 0%)" stroke-opacity="1" stroke-miterlimit="10" d="M 134.309027 -45.782301 L 177.508438 -73.273192 " transform="matrix(0.996921, 0, 0, -0.996921, -47.868166, 93.432874)"/>
<path fill="none" stroke-width="0.79701" stroke-linecap="butt" stroke-linejoin="miter" stroke="rgb(0%, 0%, 0%)" stroke-opacity="1" stroke-miterlimit="10" d="M 136.084024 -79.370088 L 175.729524 -79.370088 " transform="matrix(0.996921, 0, 0, -0.996921, -47.868166, 93.432874)"/>
<path fill-rule="nonzero" fill="rgb(79.998779%, 79.998779%, 100%)" fill-opacity="1" d="M 211.742188 14.304688 C 211.742188 8.273438 206.847656 3.382812 200.816406 3.382812 C 194.78125 3.382812 189.890625 8.273438 189.890625 14.304688 C 189.890625 20.339844 194.78125 25.230469 200.816406 25.230469 C 206.847656 25.230469 211.742188 20.339844 211.742188 14.304688 Z M 211.742188 14.304688 "/>
<g clip-path="url(#clip-4)">
<path fill="none" stroke-width="0.79701" stroke-linecap="butt" stroke-linejoin="miter" stroke="rgb(0%, 0%, 100%)" stroke-opacity="1" stroke-miterlimit="10" d="M 260.412124 79.372563 C 260.412124 85.42244 255.502477 90.328169 249.4526 90.328169 C 243.398805 90.328169 238.493076 85.42244 238.493076 79.372563 C 238.493076 73.318768 243.398805 68.413039 249.4526 68.413039 C 255.502477 68.413039 260.412124 73.318768 260.412124 79.372563 Z M 260.412124 79.372563 " transform="matrix(0.996921, 0, 0, -0.996921, -47.868166, 93.432874)"/>
</g>
<path fill="none" stroke-width="0.79701" stroke-linecap="butt" stroke-linejoin="miter" stroke="rgb(0%, 0%, 0%)" stroke-opacity="1" stroke-miterlimit="10" d="M 198.447908 79.372563 L 238.093408 79.372563 " transform="matrix(0.996921, 0, 0, -0.996921, -47.868166, 93.432874)"/>
<path fill="none" stroke-width="0.79701" stroke-linecap="butt" stroke-linejoin="miter" stroke="rgb(0%, 0%, 0%)" stroke-opacity="1" stroke-miterlimit="10" d="M 196.668993 45.780858 L 239.868404 73.271749 " transform="matrix(0.996921, 0, 0, -0.996921, -47.868166, 93.432874)"/>
<path fill="none" stroke-width="0.79701" stroke-linecap="butt" stroke-linejoin="miter" stroke="rgb(0%, 0%, 0%)" stroke-opacity="1" stroke-miterlimit="10" d="M 194.106416 8.929116 L 242.4349 70.438808 " transform="matrix(0.996921, 0, 0, -0.996921, -47.868166, 93.432874)"/>
<path fill="none" stroke-width="0.79701" stroke-linecap="butt" stroke-linejoin="miter" stroke="rgb(0%, 0%, 0%)" stroke-opacity="1" stroke-miterlimit="10" d="M 192.358848 -29.623175 L 244.182468 69.310333 " transform="matrix(0.996921, 0, 0, -0.996921, -47.868166, 93.432874)"/>
<path fill="none" stroke-width="0.79701" stroke-linecap="butt" stroke-linejoin="miter" stroke="rgb(0%, 0%, 0%)" stroke-opacity="1" stroke-miterlimit="10" d="M 191.242128 -68.798477 L 245.299187 68.800952 " transform="matrix(0.996921, 0, 0, -0.996921, -47.868166, 93.432874)"/>
<path fill-rule="nonzero" fill="rgb(79.998779%, 79.998779%, 100%)" fill-opacity="1" stroke-width="0.79701" stroke-linecap="butt" stroke-linejoin="miter" stroke="rgb(0%, 0%, 100%)" stroke-opacity="1" stroke-miterlimit="10" d="M 260.412124 39.683962 C 260.412124 45.737757 255.502477 50.643486 249.4526 50.643486 C 243.398805 50.643486 238.493076 45.737757 238.493076 39.683962 C 238.493076 33.634085 243.398805 28.724438 249.4526 28.724438 C 255.502477 28.724438 260.412124 33.634085 260.412124 39.683962 Z M 260.412124 39.683962 " transform="matrix(0.996921, 0, 0, -0.996921, -47.868166, 93.432874)"/>
<path fill="none" stroke-width="0.79701" stroke-linecap="butt" stroke-linejoin="miter" stroke="rgb(0%, 0%, 0%)" stroke-opacity="1" stroke-miterlimit="10" d="M 196.668993 73.271749 L 239.868404 45.780858 " transform="matrix(0.996921, 0, 0, -0.996921, -47.868166, 93.432874)"/>
<path fill="none" stroke-width="0.79701" stroke-linecap="butt" stroke-linejoin="miter" stroke="rgb(0%, 0%, 0%)" stroke-opacity="1" stroke-miterlimit="10" d="M 198.447908 39.683962 L 238.093408 39.683962 " transform="matrix(0.996921, 0, 0, -0.996921, -47.868166, 93.432874)"/>
<path fill="none" stroke-width="0.79701" stroke-linecap="butt" stroke-linejoin="miter" stroke="rgb(0%, 0%, 0%)" stroke-opacity="1" stroke-miterlimit="10" d="M 196.668993 6.096175 L 239.868404 33.587065 " transform="matrix(0.996921, 0, 0, -0.996921, -47.868166, 93.432874)"/>
<path fill="none" stroke-width="0.79701" stroke-linecap="butt" stroke-linejoin="miter" stroke="rgb(0%, 0%, 0%)" stroke-opacity="1" stroke-miterlimit="10" d="M 194.106416 -30.755567 L 242.4349 30.754124 " transform="matrix(0.996921, 0, 0, -0.996921, -47.868166, 93.432874)"/>
<path fill="none" stroke-width="0.79701" stroke-linecap="butt" stroke-linejoin="miter" stroke="rgb(0%, 0%, 0%)" stroke-opacity="1" stroke-miterlimit="10" d="M 192.358848 -69.311776 L 244.182468 29.62565 " transform="matrix(0.996921, 0, 0, -0.996921, -47.868166, 93.432874)"/>
<path fill-rule="nonzero" fill="rgb(79.998779%, 79.998779%, 100%)" fill-opacity="1" stroke-width="0.79701" stroke-linecap="butt" stroke-linejoin="miter" stroke="rgb(0%, 0%, 100%)" stroke-opacity="1" stroke-miterlimit="10" d="M 260.412124 -0.000721577 C 260.412124 6.053073 255.502477 10.958802 249.4526 10.958802 C 243.398805 10.958802 238.493076 6.053073 238.493076 -0.000721577 C 238.493076 -6.054517 243.398805 -10.960246 249.4526 -10.960246 C 255.502477 -10.960246 260.412124 -6.054517 260.412124 -0.000721577 Z M 260.412124 -0.000721577 " transform="matrix(0.996921, 0, 0, -0.996921, -47.868166, 93.432874)"/>
<path fill="none" stroke-width="0.79701" stroke-linecap="butt" stroke-linejoin="miter" stroke="rgb(0%, 0%, 0%)" stroke-opacity="1" stroke-miterlimit="10" d="M 194.106416 70.438808 L 242.4349 8.929116 " transform="matrix(0.996921, 0, 0, -0.996921, -47.868166, 93.432874)"/>
<path fill="none" stroke-width="0.79701" stroke-linecap="butt" stroke-linejoin="miter" stroke="rgb(0%, 0%, 0%)" stroke-opacity="1" stroke-miterlimit="10" d="M 196.668993 33.587065 L 239.868404 6.096175 " transform="matrix(0.996921, 0, 0, -0.996921, -47.868166, 93.432874)"/>
<path fill="none" stroke-width="0.79701" stroke-linecap="butt" stroke-linejoin="miter" stroke="rgb(0%, 0%, 0%)" stroke-opacity="1" stroke-miterlimit="10" d="M 198.447908 -0.000721577 L 238.093408 -0.000721577 " transform="matrix(0.996921, 0, 0, -0.996921, -47.868166, 93.432874)"/>
<path fill="none" stroke-width="0.79701" stroke-linecap="butt" stroke-linejoin="miter" stroke="rgb(0%, 0%, 0%)" stroke-opacity="1" stroke-miterlimit="10" d="M 196.668993 -33.588508 L 239.868404 -6.097618 " transform="matrix(0.996921, 0, 0, -0.996921, -47.868166, 93.432874)"/>
<path fill="none" stroke-width="0.79701" stroke-linecap="butt" stroke-linejoin="miter" stroke="rgb(0%, 0%, 0%)" stroke-opacity="1" stroke-miterlimit="10" d="M 194.106416 -70.440251 L 242.4349 -8.930559 " transform="matrix(0.996921, 0, 0, -0.996921, -47.868166, 93.432874)"/>
<path fill-rule="nonzero" fill="rgb(79.998779%, 79.998779%, 100%)" fill-opacity="1" stroke-width="0.79701" stroke-linecap="butt" stroke-linejoin="miter" stroke="rgb(0%, 0%, 100%)" stroke-opacity="1" stroke-miterlimit="10" d="M 260.412124 -39.685405 C 260.412124 -33.63161 255.502477 -28.725881 249.4526 -28.725881 C 243.398805 -28.725881 238.493076 -33.63161 238.493076 -39.685405 C 238.493076 -45.7392 243.398805 -50.644929 249.4526 -50.644929 C 255.502477 -50.644929 260.412124 -45.7392 260.412124 -39.685405 Z M 260.412124 -39.685405 " transform="matrix(0.996921, 0, 0, -0.996921, -47.868166, 93.432874)"/>
<path fill="none" stroke-width="0.79701" stroke-linecap="butt" stroke-linejoin="miter" stroke="rgb(0%, 0%, 0%)" stroke-opacity="1" stroke-miterlimit="10" d="M 192.358848 69.310333 L 244.182468 -29.623175 " transform="matrix(0.996921, 0, 0, -0.996921, -47.868166, 93.432874)"/>
<path fill="none" stroke-width="0.79701" stroke-linecap="butt" stroke-linejoin="miter" stroke="rgb(0%, 0%, 0%)" stroke-opacity="1" stroke-miterlimit="10" d="M 194.106416 30.754124 L 242.4349 -30.755567 " transform="matrix(0.996921, 0, 0, -0.996921, -47.868166, 93.432874)"/>
<path fill="none" stroke-width="0.79701" stroke-linecap="butt" stroke-linejoin="miter" stroke="rgb(0%, 0%, 0%)" stroke-opacity="1" stroke-miterlimit="10" d="M 196.668993 -6.097618 L 239.868404 -33.588508 " transform="matrix(0.996921, 0, 0, -0.996921, -47.868166, 93.432874)"/>
<path fill="none" stroke-width="0.79701" stroke-linecap="butt" stroke-linejoin="miter" stroke="rgb(0%, 0%, 0%)" stroke-opacity="1" stroke-miterlimit="10" d="M 198.447908 -39.685405 L 238.093408 -39.685405 " transform="matrix(0.996921, 0, 0, -0.996921, -47.868166, 93.432874)"/>
<path fill="none" stroke-width="0.79701" stroke-linecap="butt" stroke-linejoin="miter" stroke="rgb(0%, 0%, 0%)" stroke-opacity="1" stroke-miterlimit="10" d="M 196.668993 -73.273192 L 239.868404 -45.782301 " transform="matrix(0.996921, 0, 0, -0.996921, -47.868166, 93.432874)"/>
<path fill-rule="nonzero" fill="rgb(79.998779%, 79.998779%, 100%)" fill-opacity="1" d="M 211.742188 172.558594 C 211.742188 166.523438 206.847656 161.632812 200.816406 161.632812 C 194.78125 161.632812 189.890625 166.523438 189.890625 172.558594 C 189.890625 178.59375 194.78125 183.484375 200.816406 183.484375 C 206.847656 183.484375 211.742188 178.59375 211.742188 172.558594 Z M 211.742188 172.558594 "/>
<g clip-path="url(#clip-5)">
<path fill="none" stroke-width="0.79701" stroke-linecap="butt" stroke-linejoin="miter" stroke="rgb(0%, 0%, 100%)" stroke-opacity="1" stroke-miterlimit="10" d="M 260.412124 -79.370088 C 260.412124 -73.316293 255.502477 -68.410564 249.4526 -68.410564 C 243.398805 -68.410564 238.493076 -73.316293 238.493076 -79.370088 C 238.493076 -85.423883 243.398805 -90.329612 249.4526 -90.329612 C 255.502477 -90.329612 260.412124 -85.423883 260.412124 -79.370088 Z M 260.412124 -79.370088 " transform="matrix(0.996921, 0, 0, -0.996921, -47.868166, 93.432874)"/>
</g>
<path fill="none" stroke-width="0.79701" stroke-linecap="butt" stroke-linejoin="miter" stroke="rgb(0%, 0%, 0%)" stroke-opacity="1" stroke-miterlimit="10" d="M 191.242128 68.800952 L 245.299187 -68.798477 " transform="matrix(0.996921, 0, 0, -0.996921, -47.868166, 93.432874)"/>
<path fill="none" stroke-width="0.79701" stroke-linecap="butt" stroke-linejoin="miter" stroke="rgb(0%, 0%, 0%)" stroke-opacity="1" stroke-miterlimit="10" d="M 192.358848 29.62565 L 244.182468 -69.311776 " transform="matrix(0.996921, 0, 0, -0.996921, -47.868166, 93.432874)"/>
<path fill="none" stroke-width="0.79701" stroke-linecap="butt" stroke-linejoin="miter" stroke="rgb(0%, 0%, 0%)" stroke-opacity="1" stroke-miterlimit="10" d="M 194.106416 -8.930559 L 242.4349 -70.440251 " transform="matrix(0.996921, 0, 0, -0.996921, -47.868166, 93.432874)"/>
<path fill="none" stroke-width="0.79701" stroke-linecap="butt" stroke-linejoin="miter" stroke="rgb(0%, 0%, 0%)" stroke-opacity="1" stroke-miterlimit="10" d="M 196.668993 -45.782301 L 239.868404 -73.273192 " transform="matrix(0.996921, 0, 0, -0.996921, -47.868166, 93.432874)"/>
<path fill="none" stroke-width="0.79701" stroke-linecap="butt" stroke-linejoin="miter" stroke="rgb(0%, 0%, 0%)" stroke-opacity="1" stroke-miterlimit="10" d="M 198.447908 -79.370088 L 238.093408 -79.370088 " transform="matrix(0.996921, 0, 0, -0.996921, -47.868166, 93.432874)"/>
<path fill-rule="nonzero" fill="rgb(79.998779%, 79.998779%, 100%)" fill-opacity="1" d="M 273.910156 53.871094 C 273.910156 47.835938 269.019531 42.945312 262.988281 42.945312 C 256.953125 42.945312 252.0625 47.835938 252.0625 53.871094 C 252.0625 59.902344 256.953125 64.796875 262.988281 64.796875 C 269.019531 64.796875 273.910156 59.902344 273.910156 53.871094 Z M 273.910156 53.871094 "/>
<g clip-path="url(#clip-6)">
<path fill="none" stroke-width="0.79701" stroke-linecap="butt" stroke-linejoin="miter" stroke="rgb(0%, 0%, 100%)" stroke-opacity="1" stroke-miterlimit="10" d="M 322.77209 39.683962 C 322.77209 45.737757 317.866361 50.643486 311.816484 50.643486 C 305.762689 50.643486 300.85696 45.737757 300.85696 39.683962 C 300.85696 33.634085 305.762689 28.724438 311.816484 28.724438 C 317.866361 28.724438 322.77209 33.634085 322.77209 39.683962 Z M 322.77209 39.683962 " transform="matrix(0.996921, 0, 0, -0.996921, -47.868166, 93.432874)"/>
</g>
<path fill="none" stroke-width="0.79701" stroke-linecap="butt" stroke-linejoin="miter" stroke="rgb(0%, 0%, 0%)" stroke-opacity="1" stroke-miterlimit="10" d="M 259.032877 73.271749 L 302.232288 45.780858 " transform="matrix(0.996921, 0, 0, -0.996921, -47.868166, 93.432874)"/>
<path fill="none" stroke-width="0.79701" stroke-linecap="butt" stroke-linejoin="miter" stroke="rgb(0%, 0%, 0%)" stroke-opacity="1" stroke-miterlimit="10" d="M 260.807874 39.683962 L 300.457292 39.683962 " transform="matrix(0.996921, 0, 0, -0.996921, -47.868166, 93.432874)"/>
<path fill="none" stroke-width="0.79701" stroke-linecap="butt" stroke-linejoin="miter" stroke="rgb(0%, 0%, 0%)" stroke-opacity="1" stroke-miterlimit="10" d="M 259.032877 6.096175 L 302.232288 33.587065 " transform="matrix(0.996921, 0, 0, -0.996921, -47.868166, 93.432874)"/>
<path fill="none" stroke-width="0.79701" stroke-linecap="butt" stroke-linejoin="miter" stroke="rgb(0%, 0%, 0%)" stroke-opacity="1" stroke-miterlimit="10" d="M 256.466382 -30.755567 L 304.798784 30.754124 " transform="matrix(0.996921, 0, 0, -0.996921, -47.868166, 93.432874)"/>
<path fill="none" stroke-width="0.79701" stroke-linecap="butt" stroke-linejoin="miter" stroke="rgb(0%, 0%, 0%)" stroke-opacity="1" stroke-miterlimit="10" d="M 254.722732 -69.311776 L 306.546352 29.62565 " transform="matrix(0.996921, 0, 0, -0.996921, -47.868166, 93.432874)"/>
<path fill-rule="nonzero" fill="rgb(79.998779%, 79.998779%, 100%)" fill-opacity="1" d="M 273.910156 93.433594 C 273.910156 87.398438 269.019531 82.507812 262.988281 82.507812 C 256.953125 82.507812 252.0625 87.398438 252.0625 93.433594 C 252.0625 99.46875 256.953125 104.359375 262.988281 104.359375 C 269.019531 104.359375 273.910156 99.46875 273.910156 93.433594 Z M 273.910156 93.433594 "/>
<g clip-path="url(#clip-7)">
<path fill="none" stroke-width="0.79701" stroke-linecap="butt" stroke-linejoin="miter" stroke="rgb(0%, 0%, 100%)" stroke-opacity="1" stroke-miterlimit="10" d="M 322.77209 -0.000721577 C 322.77209 6.053073 317.866361 10.958802 311.816484 10.958802 C 305.762689 10.958802 300.85696 6.053073 300.85696 -0.000721577 C 300.85696 -6.054517 305.762689 -10.960246 311.816484 -10.960246 C 317.866361 -10.960246 322.77209 -6.054517 322.77209 -0.000721577 Z M 322.77209 -0.000721577 " transform="matrix(0.996921, 0, 0, -0.996921, -47.868166, 93.432874)"/>
</g>
<path fill="none" stroke-width="0.79701" stroke-linecap="butt" stroke-linejoin="miter" stroke="rgb(0%, 0%, 0%)" stroke-opacity="1" stroke-miterlimit="10" d="M 256.466382 70.438808 L 304.798784 8.929116 " transform="matrix(0.996921, 0, 0, -0.996921, -47.868166, 93.432874)"/>
<path fill="none" stroke-width="0.79701" stroke-linecap="butt" stroke-linejoin="miter" stroke="rgb(0%, 0%, 0%)" stroke-opacity="1" stroke-miterlimit="10" d="M 259.032877 33.587065 L 302.232288 6.096175 " transform="matrix(0.996921, 0, 0, -0.996921, -47.868166, 93.432874)"/>
<path fill="none" stroke-width="0.79701" stroke-linecap="butt" stroke-linejoin="miter" stroke="rgb(0%, 0%, 0%)" stroke-opacity="1" stroke-miterlimit="10" d="M 260.807874 -0.000721577 L 300.457292 -0.000721577 " transform="matrix(0.996921, 0, 0, -0.996921, -47.868166, 93.432874)"/>
<path fill="none" stroke-width="0.79701" stroke-linecap="butt" stroke-linejoin="miter" stroke="rgb(0%, 0%, 0%)" stroke-opacity="1" stroke-miterlimit="10" d="M 259.032877 -33.588508 L 302.232288 -6.097618 " transform="matrix(0.996921, 0, 0, -0.996921, -47.868166, 93.432874)"/>
<path fill="none" stroke-width="0.79701" stroke-linecap="butt" stroke-linejoin="miter" stroke="rgb(0%, 0%, 0%)" stroke-opacity="1" stroke-miterlimit="10" d="M 256.466382 -70.440251 L 304.798784 -8.930559 " transform="matrix(0.996921, 0, 0, -0.996921, -47.868166, 93.432874)"/>
<path fill-rule="nonzero" fill="rgb(79.998779%, 79.998779%, 100%)" fill-opacity="1" d="M 273.910156 132.996094 C 273.910156 126.960938 269.019531 122.070312 262.988281 122.070312 C 256.953125 122.070312 252.0625 126.960938 252.0625 132.996094 C 252.0625 139.03125 256.953125 143.921875 262.988281 143.921875 C 269.019531 143.921875 273.910156 139.03125 273.910156 132.996094 Z M 273.910156 132.996094 "/>
<g clip-path="url(#clip-8)">
<path fill="none" stroke-width="0.79701" stroke-linecap="butt" stroke-linejoin="miter" stroke="rgb(0%, 0%, 100%)" stroke-opacity="1" stroke-miterlimit="10" d="M 322.77209 -39.685405 C 322.77209 -33.63161 317.866361 -28.725881 311.816484 -28.725881 C 305.762689 -28.725881 300.85696 -33.63161 300.85696 -39.685405 C 300.85696 -45.7392 305.762689 -50.644929 311.816484 -50.644929 C 317.866361 -50.644929 322.77209 -45.7392 322.77209 -39.685405 Z M 322.77209 -39.685405 " transform="matrix(0.996921, 0, 0, -0.996921, -47.868166, 93.432874)"/>
</g>
<path fill="none" stroke-width="0.79701" stroke-linecap="butt" stroke-linejoin="miter" stroke="rgb(0%, 0%, 0%)" stroke-opacity="1" stroke-miterlimit="10" d="M 254.722732 69.310333 L 306.546352 -29.623175 " transform="matrix(0.996921, 0, 0, -0.996921, -47.868166, 93.432874)"/>
<path fill="none" stroke-width="0.79701" stroke-linecap="butt" stroke-linejoin="miter" stroke="rgb(0%, 0%, 0%)" stroke-opacity="1" stroke-miterlimit="10" d="M 256.466382 30.754124 L 304.798784 -30.755567 " transform="matrix(0.996921, 0, 0, -0.996921, -47.868166, 93.432874)"/>
<path fill="none" stroke-width="0.79701" stroke-linecap="butt" stroke-linejoin="miter" stroke="rgb(0%, 0%, 0%)" stroke-opacity="1" stroke-miterlimit="10" d="M 259.032877 -6.097618 L 302.232288 -33.588508 " transform="matrix(0.996921, 0, 0, -0.996921, -47.868166, 93.432874)"/>
<path fill="none" stroke-width="0.79701" stroke-linecap="butt" stroke-linejoin="miter" stroke="rgb(0%, 0%, 0%)" stroke-opacity="1" stroke-miterlimit="10" d="M 260.807874 -39.685405 L 300.457292 -39.685405 " transform="matrix(0.996921, 0, 0, -0.996921, -47.868166, 93.432874)"/>
<path fill="none" stroke-width="0.79701" stroke-linecap="butt" stroke-linejoin="miter" stroke="rgb(0%, 0%, 0%)" stroke-opacity="1" stroke-miterlimit="10" d="M 259.032877 -73.273192 L 302.232288 -45.782301 " transform="matrix(0.996921, 0, 0, -0.996921, -47.868166, 93.432874)"/>
</svg>